<svg width="661" height="228" viewBox="0 0 661 228" fill="none" xmlns="http://www.w3.org/2000/svg">
<path fill-rule="evenodd" clip-rule="evenodd" d="M130.516 227.031C161.728 227.031 187.031 201.728 187.031 170.516C187.031 139.303 161.728 114 130.516 114C99.3029 114 74 139.303 74 170.516C74 201.728 99.3029 227.031 130.516 227.031ZM130.509 200C146.806 200 160.018 187.016 160.018 171C160.018 154.984 146.806 142 130.509 142C114.212 142 101 154.984 101 171C101 187.016 114.212 200 130.509 200Z" fill="#DCDCDC"/>
<path fill-rule="evenodd" clip-rule="evenodd" d="M542.516 227.031C573.728 227.031 599.031 201.728 599.031 170.516C599.031 139.303 573.728 114 542.516 114C511.303 114 486 139.303 486 170.516C486 201.728 511.303 227.031 542.516 227.031ZM542.509 200C558.806 200 572.018 187.016 572.018 171C572.018 154.984 558.806 142 542.509 142C526.212 142 513 154.984 513 171C513 187.016 526.212 200 542.509 200Z" fill="#DCDCDC"/>
<path fill-rule="evenodd" clip-rule="evenodd" d="M48.0081 47.2975C48.0081 47.2975 80.2417 43.2641 84.2316 41.7582C88.2215 40.2522 164.576 14.5872 217.999 6.67215C263.008 0.00376971 310.403 -0.500207 334.333 0.273073C358.263 1.04635 362.734 1.68511 376.504 4.97107C390.274 8.25704 485.973 62.7417 485.973 62.7417C485.973 62.7417 511.011 63.4769 539.93 67.1988C566.447 70.6116 596.654 76.8954 604.733 79.7804C621.623 85.8117 653.021 99.8645 654.232 106.032C655.442 112.2 651.187 120.944 651.187 120.944C651.187 120.944 658.552 124.642 659.49 126.693C660.427 128.743 661.433 169.135 659.97 171.44C658.506 173.745 646.996 178.332 640.718 180.002C635.542 181.379 611.513 180.779 603.241 180.526C603.47 178.366 603.588 176.171 603.588 173.95C603.588 139.943 576.02 112.375 542.014 112.375C508.007 112.375 480.439 139.943 480.439 173.95C480.439 176.542 480.599 179.097 480.91 181.605L190.741 179.574C190.984 177.351 191.109 175.092 191.109 172.805C191.109 138.798 163.541 111.23 129.534 111.23C95.6698 111.23 68.1903 138.568 67.9615 172.379C55.3746 170.37 6.15389 162.365 3.43042 159.601C0.306043 156.429 -0.309023 141.785 0.12304 139.377C0.555103 136.969 6.05961 127.296 6.05961 127.296C6.05961 127.296 5.49367 117.229 5.93065 115.279C6.36763 113.328 9.18075 108.834 9.18075 108.834C9.18075 108.834 8.55579 103.919 9.11565 102.769C9.67551 101.618 15.1566 100.415 15.1566 100.415C15.1566 100.415 16.7334 76.7053 18.9818 72.904C21.2303 69.1028 32.1777 54.6782 34.933 55.4498C37.6883 56.2214 45.843 69.5254 45.2806 70.4471C44.7183 71.3688 33.2996 73.8949 33.2996 73.8949C33.2996 73.8949 21.5374 87.0693 22.5969 89.8049C23.6565 92.5405 46.2796 88.864 49.5898 88.0273C52.9 87.1906 76.6715 73.2006 77.325 70.1032C77.9784 67.0059 48.0081 47.2975 48.0081 47.2975ZM9.69786 132.297C10.9381 132.799 11.8486 133.168 13.3372 133.514C13.3372 133.514 22.0301 132.963 23.9805 133.4C25.931 133.836 35.7766 144.719 35.6892 147.238C35.6018 149.757 26.7902 152.912 20.4139 153.01C16.8203 153.065 13.6556 152.51 11.3544 151.39C9.05322 150.27 4.07563 145.059 4.07563 145.059L3.95281 133.614C3.95281 133.614 4.05853 130.972 5.29175 130.395C6.16468 129.987 6.79559 130.5 7.50055 131.072C7.90762 131.403 8.33939 131.754 8.85671 131.959C9.15383 132.077 9.42812 132.188 9.68787 132.293L9.68839 132.294L9.68851 132.294L9.69711 132.297L9.69786 132.297ZM232.954 24.7096C226.774 24.7759 168.893 38.6742 167.118 43.8438C165.342 49.0134 241.411 55.2934 243.452 53.6691C245.492 52.0448 246.369 48.2583 244.777 38.5465C243.185 28.8347 239.134 24.6433 232.954 24.7096ZM420.69 48.2192C420.69 48.2192 415.122 51.9416 414.487 56.7556C413.852 61.5696 417.339 66.5683 417.339 66.5683L274.533 59.2877C274.533 59.2877 272.632 48.0188 270.56 41.0172C269.589 37.7398 268.08 34.0327 266.864 31.0447L266.863 31.0427L266.863 31.0421C265.801 28.4329 264.962 26.3725 264.9 25.6262C264.769 24.0252 264.499 20.251 266.542 18.6267C268.585 17.0023 311.782 10.7016 348.016 16.8367C384.251 22.9718 420.69 48.2192 420.69 48.2192ZM614.761 107.716C604.861 102.443 590.461 93.7839 590.893 91.3756C591.325 88.9673 653.106 97.2319 651.397 108.582C649.724 119.689 648.044 119.944 645.724 120.295L645.571 120.319C643.172 120.688 624.661 112.989 614.761 107.716ZM635.112 137.598C630.549 139.021 623.958 154.085 623.865 156.032C623.771 157.979 629.094 163.416 632.317 165.098C635.54 166.78 650.743 164.9 650.743 164.9C650.743 164.9 649.836 161.247 651.903 155.731C653.141 152.429 655.207 150.513 656.663 149.163C657.639 148.257 658.34 147.607 658.333 146.963C658.327 146.339 656.968 143.49 653.24 141.639C647.402 138.74 637.897 136.73 635.112 137.598Z" fill="#DCDCDC"/>
</svg>
