<svg width="358" height="79" viewBox="0 0 358 79" fill="none" xmlns="http://www.w3.org/2000/svg">
<path fill-rule="evenodd" clip-rule="evenodd" d="M69.1967 2.96489L88.5881 36.5351H88.5642C89.6162 38.3762 89.6162 40.6238 88.5642 42.4649L69.1728 76.0351C68.1208 77.8762 66.1601 79 64.056 79H25.2972C23.1931 79 21.2324 77.8762 20.1804 76.0351L0.789043 42.4649C-0.263014 40.6238 -0.263014 38.3762 0.789043 36.5351L20.1804 2.96489C21.2324 1.12379 23.1931 0 25.2972 0H64.0799C66.184 0 68.1447 1.12379 69.1967 2.96489ZM11.6205 39.5C11.6205 57.7675 26.421 72.5681 44.6886 72.5681C62.9561 72.5681 77.7566 57.7675 77.7566 39.5C77.7566 21.2324 62.9561 6.4319 44.6886 6.4319C26.421 6.4319 11.6205 21.2324 11.6205 39.5ZM14.7997 39.5002C14.7997 23.002 28.1895 9.61222 44.6877 9.61222C61.1859 9.61222 74.5757 23.002 74.5757 39.5002C74.5757 55.9984 61.1859 69.3882 44.6877 69.3882C28.1895 69.3882 14.7997 55.9984 14.7997 39.5002ZM19.5818 39.4763C19.5818 53.3444 30.8197 64.5822 44.6877 64.5822C58.5558 64.5822 69.7937 53.3444 69.7937 39.4763C69.7937 25.6083 58.5558 14.3704 44.6877 14.3704C30.8197 14.3704 19.5818 25.6083 19.5818 39.4763Z" fill="#E51837"/>
<path d="M105.354 71.5L132.543 7.5H147.127L174.316 71.5H158.898L140.147 23.8741L139.314 20.6169L138.376 24.0502L129.522 46.8508L128.271 48.6114L129.834 48.4354H137.751C139.765 48.4354 141.449 48.9195 142.804 49.8879C144.193 50.8563 145.304 52.0447 146.137 53.4532C147.005 54.8618 147.682 56.2116 148.168 57.5028H125.563L120.042 71.5H105.354Z" fill="#43484E"/>
<path d="M226.89 71.5L181.574 7.5H198.034L210.847 28.5399L211.889 31.2689L212.722 28.5399L225.535 7.5H241.89L219.285 39.1038L243.036 71.5H226.89ZM180.429 71.5L201.055 42.8893C201.923 43.887 202.878 45.2955 203.92 47.1149C204.961 48.9049 205.656 50.8416 206.003 52.925C206.385 54.9791 205.986 56.9159 204.805 58.7352L196.367 71.5H180.429Z" fill="#43484E"/>
<path d="M254.822 71.5V7.5H269.823V62.3446H297.116V71.5H254.822Z" fill="#43484E"/>
<path d="M310.268 71.5V7.5H355.687V16.5674H325.164V62.4326H357.354V71.5H310.268ZM329.123 42.3611C329.574 41.0699 330.217 39.7348 331.05 38.3556C331.918 36.9764 333.047 35.8173 334.436 34.8783C335.825 33.9393 337.526 33.4697 339.54 33.4697H352.145V42.3611H329.123Z" fill="#43484E"/>
</svg>
