<svg width="697" height="118" viewBox="0 0 697 118" fill="none" xmlns="http://www.w3.org/2000/svg">
<circle cx="537" cy="12" r="11.5" fill="#9E9FAD" stroke="#9E9FAD"/>
<line x1="164" y1="13" x2="346" y2="13" stroke="#9E9FAD" stroke-width="6"/>
<line x1="346" y1="13" x2="528" y2="13" stroke="#9E9FAD" stroke-width="6"/>
<circle cx="346" cy="12" r="12" fill="#9E9FAD"/>
<circle cx="160" cy="12" r="12" fill="#E51837"/>
<path d="M124.88 72.24C123.493 72.24 122.28 71.9333 121.24 71.32C120.2 70.7067 119.387 69.86 118.8 68.78C118.213 67.6867 117.92 66.4267 117.92 65C117.92 63.5733 118.213 62.32 118.8 61.24C119.387 60.1467 120.2 59.2933 121.24 58.68C122.28 58.0667 123.493 57.76 124.88 57.76C126.267 57.76 127.48 58.0667 128.52 58.68C129.56 59.2933 130.367 60.1467 130.94 61.24C131.527 62.32 131.82 63.5733 131.82 65C131.82 66.4267 131.527 67.6867 130.94 68.78C130.367 69.86 129.56 70.7067 128.52 71.32C127.48 71.9333 126.267 72.24 124.88 72.24ZM124.88 70.34C125.84 70.34 126.673 70.1267 127.38 69.7C128.1 69.2733 128.66 68.66 129.06 67.86C129.46 67.06 129.66 66.1067 129.66 65C129.66 63.8933 129.46 62.94 129.06 62.14C128.66 61.34 128.1 60.7267 127.38 60.3C126.673 59.8733 125.84 59.66 124.88 59.66C123.92 59.66 123.08 59.8733 122.36 60.3C121.64 60.7267 121.08 61.34 120.68 62.14C120.293 62.94 120.1 63.8933 120.1 65C120.1 66.1067 120.293 67.06 120.68 67.86C121.08 68.66 121.64 69.2733 122.36 69.7C123.08 70.1267 123.92 70.34 124.88 70.34ZM134.102 72V62.08H136.002L136.182 63.96C136.528 63.3067 137.008 62.7933 137.622 62.42C138.248 62.0333 139.002 61.84 139.882 61.84V64.06H139.302C138.715 64.06 138.188 64.16 137.722 64.36C137.268 64.5467 136.902 64.8733 136.622 65.34C136.355 65.7933 136.222 66.4267 136.222 67.24V72H134.102ZM145.946 72.24C144.986 72.24 144.139 72.0133 143.406 71.56C142.673 71.1067 142.099 70.4867 141.686 69.7C141.273 68.9133 141.066 68.02 141.066 67.02C141.066 66.02 141.273 65.1333 141.686 64.36C142.099 63.5733 142.673 62.96 143.406 62.52C144.153 62.0667 145.006 61.84 145.966 61.84C146.753 61.84 147.439 61.9933 148.026 62.3C148.626 62.6067 149.093 63.04 149.426 63.6V57.6H151.546V72H149.646L149.426 70.46C149.106 70.9267 148.666 71.34 148.106 71.7C147.546 72.06 146.826 72.24 145.946 72.24ZM146.326 70.4C147.233 70.4 147.973 70.0867 148.546 69.46C149.133 68.8333 149.426 68.0267 149.426 67.04C149.426 66.04 149.133 65.2333 148.546 64.62C147.973 63.9933 147.233 63.68 146.326 63.68C145.419 63.68 144.673 63.9933 144.086 64.62C143.499 65.2333 143.206 66.04 143.206 67.04C143.206 67.6933 143.339 68.2733 143.606 68.78C143.873 69.2867 144.239 69.6867 144.706 69.98C145.186 70.26 145.726 70.4 146.326 70.4ZM158.859 72.24C157.886 72.24 157.019 72.0267 156.259 71.6C155.512 71.16 154.926 70.5533 154.499 69.78C154.072 69.0067 153.859 68.1067 153.859 67.08C153.859 66.04 154.066 65.1267 154.479 64.34C154.906 63.5533 155.492 62.94 156.239 62.5C156.999 62.06 157.879 61.84 158.879 61.84C159.852 61.84 160.699 62.06 161.419 62.5C162.139 62.9267 162.699 63.5 163.099 64.22C163.499 64.94 163.699 65.7333 163.699 66.6C163.699 66.7333 163.692 66.88 163.679 67.04C163.679 67.1867 163.672 67.3533 163.659 67.54H155.939C156.006 68.5 156.319 69.2333 156.879 69.74C157.452 70.2333 158.112 70.48 158.859 70.48C159.459 70.48 159.959 70.3467 160.359 70.08C160.772 69.8 161.079 69.4267 161.279 68.96H163.399C163.132 69.8933 162.599 70.6733 161.799 71.3C161.012 71.9267 160.032 72.24 158.859 72.24ZM158.859 63.58C158.152 63.58 157.526 63.7933 156.979 64.22C156.432 64.6333 156.099 65.26 155.979 66.1H161.579C161.539 65.3267 161.266 64.7133 160.759 64.26C160.252 63.8067 159.619 63.58 158.859 63.58ZM165.899 72V62.08H167.799L167.979 63.96C168.325 63.3067 168.805 62.7933 169.419 62.42C170.045 62.0333 170.799 61.84 171.679 61.84V64.06H171.099C170.512 64.06 169.985 64.16 169.519 64.36C169.065 64.5467 168.699 64.8733 168.419 65.34C168.152 65.7933 168.019 66.4267 168.019 67.24V72H165.899ZM177.863 72.24C176.889 72.24 176.023 72.0267 175.263 71.6C174.516 71.16 173.929 70.5533 173.503 69.78C173.076 69.0067 172.863 68.1067 172.863 67.08C172.863 66.04 173.069 65.1267 173.483 64.34C173.909 63.5533 174.496 62.94 175.243 62.5C176.003 62.06 176.883 61.84 177.883 61.84C178.856 61.84 179.703 62.06 180.423 62.5C181.143 62.9267 181.703 63.5 182.103 64.22C182.503 64.94 182.703 65.7333 182.703 66.6C182.703 66.7333 182.696 66.88 182.683 67.04C182.683 67.1867 182.676 67.3533 182.663 67.54H174.943C175.009 68.5 175.323 69.2333 175.883 69.74C176.456 70.2333 177.116 70.48 177.863 70.48C178.463 70.48 178.963 70.3467 179.363 70.08C179.776 69.8 180.083 69.4267 180.283 68.96H182.403C182.136 69.8933 181.603 70.6733 180.803 71.3C180.016 71.9267 179.036 72.24 177.863 72.24ZM177.863 63.58C177.156 63.58 176.529 63.7933 175.983 64.22C175.436 64.6333 175.103 65.26 174.983 66.1H180.583C180.543 65.3267 180.269 64.7133 179.763 64.26C179.256 63.8067 178.623 63.58 177.863 63.58ZM189.423 72.24C188.463 72.24 187.616 72.0133 186.883 71.56C186.149 71.1067 185.576 70.4867 185.163 69.7C184.749 68.9133 184.543 68.02 184.543 67.02C184.543 66.02 184.749 65.1333 185.163 64.36C185.576 63.5733 186.149 62.96 186.883 62.52C187.629 62.0667 188.483 61.84 189.442 61.84C190.229 61.84 190.916 61.9933 191.503 62.3C192.103 62.6067 192.569 63.04 192.903 63.6V57.6H195.023V72H193.123L192.903 70.46C192.583 70.9267 192.143 71.34 191.583 71.7C191.023 72.06 190.303 72.24 189.423 72.24ZM189.803 70.4C190.709 70.4 191.449 70.0867 192.023 69.46C192.609 68.8333 192.903 68.0267 192.903 67.04C192.903 66.04 192.609 65.2333 192.023 64.62C191.449 63.9933 190.709 63.68 189.803 63.68C188.896 63.68 188.149 63.9933 187.563 64.62C186.976 65.2333 186.683 66.04 186.683 67.04C186.683 67.6933 186.816 68.2733 187.083 68.78C187.349 69.2867 187.716 69.6867 188.183 69.98C188.663 70.26 189.203 70.4 189.803 70.4Z" fill="#43484E"/>
<path d="M301.42 72V58H303.54V72H301.42ZM306.301 72V62.08H308.181L308.341 63.82C308.648 63.2067 309.094 62.7267 309.681 62.38C310.281 62.02 310.968 61.84 311.741 61.84C312.941 61.84 313.881 62.2133 314.561 62.96C315.254 63.7067 315.601 64.82 315.601 66.3V72H313.501V66.52C313.501 64.6 312.714 63.64 311.141 63.64C310.354 63.64 309.701 63.92 309.181 64.48C308.674 65.04 308.421 65.84 308.421 66.88V72H306.301ZM326.497 72V59.72H322.357V58H332.737V59.72H328.617V72H326.497ZM333.586 72V62.08H335.486L335.666 63.96C336.013 63.3067 336.493 62.7933 337.106 62.42C337.733 62.0333 338.486 61.84 339.366 61.84V64.06H338.786C338.199 64.06 337.673 64.16 337.206 64.36C336.753 64.5467 336.386 64.8733 336.106 65.34C335.839 65.7933 335.706 66.4267 335.706 67.24V72H333.586ZM344.544 72.24C343.704 72.24 343.01 72.1 342.464 71.82C341.917 71.54 341.51 71.1733 341.244 70.72C340.977 70.2533 340.844 69.7467 340.844 69.2C340.844 68.24 341.217 67.48 341.964 66.92C342.71 66.36 343.777 66.08 345.164 66.08H347.764V65.9C347.764 65.1267 347.55 64.5467 347.124 64.16C346.71 63.7733 346.17 63.58 345.504 63.58C344.917 63.58 344.404 63.7267 343.964 64.02C343.537 64.3 343.277 64.72 343.184 65.28H341.064C341.13 64.56 341.37 63.9467 341.784 63.44C342.21 62.92 342.744 62.5267 343.384 62.26C344.037 61.98 344.75 61.84 345.524 61.84C346.91 61.84 347.984 62.2067 348.744 62.94C349.504 63.66 349.884 64.6467 349.884 65.9V72H348.044L347.864 70.3C347.584 70.8467 347.177 71.3067 346.644 71.68C346.11 72.0533 345.41 72.24 344.544 72.24ZM344.964 70.52C345.537 70.52 346.017 70.3867 346.404 70.12C346.804 69.84 347.11 69.4733 347.324 69.02C347.55 68.5667 347.69 68.0667 347.744 67.52H345.384C344.544 67.52 343.944 67.6667 343.584 67.96C343.237 68.2533 343.064 68.62 343.064 69.06C343.064 69.5133 343.23 69.8733 343.564 70.14C343.91 70.3933 344.377 70.52 344.964 70.52ZM352.356 72V62.08H354.236L354.396 63.82C354.702 63.2067 355.149 62.7267 355.736 62.38C356.336 62.02 357.022 61.84 357.796 61.84C358.996 61.84 359.936 62.2133 360.616 62.96C361.309 63.7067 361.656 64.82 361.656 66.3V72H359.556V66.52C359.556 64.6 358.769 63.64 357.196 63.64C356.409 63.64 355.756 63.92 355.236 64.48C354.729 65.04 354.476 65.84 354.476 66.88V72H352.356ZM368.113 72.24C366.859 72.24 365.826 71.9333 365.013 71.32C364.199 70.7067 363.733 69.8933 363.613 68.88H365.752C365.859 69.3333 366.113 69.7267 366.513 70.06C366.913 70.38 367.439 70.54 368.092 70.54C368.733 70.54 369.199 70.4067 369.493 70.14C369.786 69.8733 369.933 69.5667 369.933 69.22C369.933 68.7133 369.726 68.3733 369.313 68.2C368.913 68.0133 368.353 67.8467 367.633 67.7C367.073 67.58 366.513 67.42 365.953 67.22C365.406 67.02 364.946 66.74 364.573 66.38C364.213 66.0067 364.033 65.5067 364.033 64.88C364.033 64.0133 364.366 63.2933 365.033 62.72C365.699 62.1333 366.633 61.84 367.833 61.84C368.939 61.84 369.833 62.1067 370.513 62.64C371.206 63.1733 371.613 63.9267 371.733 64.9H369.693C369.626 64.4733 369.426 64.14 369.093 63.9C368.773 63.66 368.339 63.54 367.793 63.54C367.259 63.54 366.846 63.6533 366.553 63.88C366.259 64.0933 366.113 64.3733 366.113 64.72C366.113 65.0667 366.313 65.34 366.713 65.54C367.126 65.74 367.666 65.92 368.333 66.08C368.999 66.2267 369.613 66.4 370.173 66.6C370.746 66.7867 371.206 67.0667 371.553 67.44C371.899 67.8133 372.073 68.36 372.073 69.08C372.086 69.9867 371.733 70.74 371.013 71.34C370.306 71.94 369.339 72.24 368.113 72.24ZM375.587 60.2C375.187 60.2 374.854 60.08 374.587 59.84C374.334 59.5867 374.207 59.2733 374.207 58.9C374.207 58.5267 374.334 58.22 374.587 57.98C374.854 57.7267 375.187 57.6 375.587 57.6C375.987 57.6 376.314 57.7267 376.567 57.98C376.834 58.22 376.967 58.5267 376.967 58.9C376.967 59.2733 376.834 59.5867 376.567 59.84C376.314 60.08 375.987 60.2 375.587 60.2ZM374.527 72V62.08H376.647V72H374.527ZM383.605 72C382.632 72 381.859 71.7667 381.285 71.3C380.712 70.82 380.425 69.9733 380.425 68.76V63.86H378.725V62.08H380.425L380.685 59.56H382.545V62.08H385.345V63.86H382.545V68.76C382.545 69.3067 382.659 69.6867 382.885 69.9C383.125 70.1 383.532 70.2 384.105 70.2H385.245V72H383.605Z" fill="#43484E"/>
<path d="M491.42 72V58H495.96C497.6 58 498.947 58.2867 500 58.86C501.067 59.4333 501.853 60.2467 502.36 61.3C502.88 62.34 503.14 63.58 503.14 65.02C503.14 66.4467 502.88 67.6867 502.36 68.74C501.853 69.78 501.067 70.5867 500 71.16C498.947 71.72 497.6 72 495.96 72H491.42ZM493.54 70.2H495.88C497.147 70.2 498.147 69.9933 498.88 69.58C499.627 69.1667 500.16 68.5733 500.48 67.8C500.813 67.0267 500.98 66.1 500.98 65.02C500.98 63.94 500.813 63.0067 500.48 62.22C500.16 61.4333 499.627 60.8333 498.88 60.42C498.147 59.9933 497.147 59.78 495.88 59.78H493.54V70.2ZM510.043 72.24C509.069 72.24 508.203 72.0267 507.443 71.6C506.696 71.16 506.109 70.5533 505.683 69.78C505.256 69.0067 505.043 68.1067 505.043 67.08C505.043 66.04 505.249 65.1267 505.663 64.34C506.089 63.5533 506.676 62.94 507.423 62.5C508.183 62.06 509.063 61.84 510.063 61.84C511.036 61.84 511.883 62.06 512.603 62.5C513.323 62.9267 513.883 63.5 514.283 64.22C514.683 64.94 514.883 65.7333 514.883 66.6C514.883 66.7333 514.876 66.88 514.863 67.04C514.863 67.1867 514.856 67.3533 514.843 67.54H507.123C507.189 68.5 507.503 69.2333 508.063 69.74C508.636 70.2333 509.296 70.48 510.043 70.48C510.643 70.48 511.143 70.3467 511.543 70.08C511.956 69.8 512.263 69.4267 512.463 68.96H514.583C514.316 69.8933 513.783 70.6733 512.983 71.3C512.196 71.9267 511.216 72.24 510.043 72.24ZM510.043 63.58C509.336 63.58 508.709 63.7933 508.163 64.22C507.616 64.6333 507.283 65.26 507.163 66.1H512.763C512.723 65.3267 512.449 64.7133 511.943 64.26C511.436 63.8067 510.803 63.58 510.043 63.58ZM517.082 72V57.6H519.202V72H517.082ZM523.087 60.2C522.687 60.2 522.354 60.08 522.087 59.84C521.834 59.5867 521.707 59.2733 521.707 58.9C521.707 58.5267 521.834 58.22 522.087 57.98C522.354 57.7267 522.687 57.6 523.087 57.6C523.487 57.6 523.814 57.7267 524.067 57.98C524.334 58.22 524.467 58.5267 524.467 58.9C524.467 59.2733 524.334 59.5867 524.067 59.84C523.814 60.08 523.487 60.2 523.087 60.2ZM522.027 72V62.08H524.147V72H522.027ZM529.725 72L526.005 62.08H528.225L530.985 69.98L533.745 62.08H535.945L532.245 72H529.725ZM541.82 72.24C540.847 72.24 539.98 72.0267 539.22 71.6C538.473 71.16 537.887 70.5533 537.46 69.78C537.033 69.0067 536.82 68.1067 536.82 67.08C536.82 66.04 537.027 65.1267 537.44 64.34C537.867 63.5533 538.453 62.94 539.2 62.5C539.96 62.06 540.84 61.84 541.84 61.84C542.813 61.84 543.66 62.06 544.38 62.5C545.1 62.9267 545.66 63.5 546.06 64.22C546.46 64.94 546.66 65.7333 546.66 66.6C546.66 66.7333 546.653 66.88 546.64 67.04C546.64 67.1867 546.633 67.3533 546.62 67.54H538.9C538.967 68.5 539.28 69.2333 539.84 69.74C540.413 70.2333 541.073 70.48 541.82 70.48C542.42 70.48 542.92 70.3467 543.32 70.08C543.733 69.8 544.04 69.4267 544.24 68.96H546.36C546.093 69.8933 545.56 70.6733 544.76 71.3C543.973 71.9267 542.993 72.24 541.82 72.24ZM541.82 63.58C541.113 63.58 540.487 63.7933 539.94 64.22C539.393 64.6333 539.06 65.26 538.94 66.1H544.54C544.5 65.3267 544.227 64.7133 543.72 64.26C543.213 63.8067 542.58 63.58 541.82 63.58ZM548.86 72V62.08H550.76L550.94 63.96C551.286 63.3067 551.766 62.7933 552.38 62.42C553.006 62.0333 553.76 61.84 554.64 61.84V64.06H554.06C553.473 64.06 552.946 64.16 552.48 64.36C552.026 64.5467 551.66 64.8733 551.38 65.34C551.113 65.7933 550.98 66.4267 550.98 67.24V72H548.86ZM560.824 72.24C559.85 72.24 558.984 72.0267 558.224 71.6C557.477 71.16 556.89 70.5533 556.464 69.78C556.037 69.0067 555.824 68.1067 555.824 67.08C555.824 66.04 556.03 65.1267 556.444 64.34C556.87 63.5533 557.457 62.94 558.204 62.5C558.964 62.06 559.844 61.84 560.844 61.84C561.817 61.84 562.664 62.06 563.384 62.5C564.104 62.9267 564.664 63.5 565.064 64.22C565.464 64.94 565.664 65.7333 565.664 66.6C565.664 66.7333 565.657 66.88 565.644 67.04C565.644 67.1867 565.637 67.3533 565.624 67.54H557.904C557.97 68.5 558.284 69.2333 558.844 69.74C559.417 70.2333 560.077 70.48 560.824 70.48C561.424 70.48 561.924 70.3467 562.324 70.08C562.737 69.8 563.044 69.4267 563.244 68.96H565.364C565.097 69.8933 564.564 70.6733 563.764 71.3C562.977 71.9267 561.997 72.24 560.824 72.24ZM560.824 63.58C560.117 63.58 559.49 63.7933 558.944 64.22C558.397 64.6333 558.064 65.26 557.944 66.1H563.544C563.504 65.3267 563.23 64.7133 562.724 64.26C562.217 63.8067 561.584 63.58 560.824 63.58ZM572.383 72.24C571.423 72.24 570.577 72.0133 569.843 71.56C569.11 71.1067 568.537 70.4867 568.123 69.7C567.71 68.9133 567.503 68.02 567.503 67.02C567.503 66.02 567.71 65.1333 568.123 64.36C568.537 63.5733 569.11 62.96 569.843 62.52C570.59 62.0667 571.443 61.84 572.403 61.84C573.19 61.84 573.877 61.9933 574.463 62.3C575.063 62.6067 575.53 63.04 575.863 63.6V57.6H577.983V72H576.083L575.863 70.46C575.543 70.9267 575.103 71.34 574.543 71.7C573.983 72.06 573.263 72.24 572.383 72.24ZM572.763 70.4C573.67 70.4 574.41 70.0867 574.983 69.46C575.57 68.8333 575.863 68.0267 575.863 67.04C575.863 66.04 575.57 65.2333 574.983 64.62C574.41 63.9933 573.67 63.68 572.763 63.68C571.857 63.68 571.11 63.9933 570.523 64.62C569.937 65.2333 569.643 66.04 569.643 67.04C569.643 67.6933 569.777 68.2733 570.043 68.78C570.31 69.2867 570.677 69.6867 571.143 69.98C571.623 70.26 572.163 70.4 572.763 70.4Z" fill="#43484E"/>
</svg>
