<svg width="32" height="32" viewBox="0 0 32 32" fill="none" xmlns="http://www.w3.org/2000/svg">
<path fill-rule="evenodd" clip-rule="evenodd" d="M16.0003 2.66699C8.64033 2.66699 2.66699 8.64033 2.66699 16.0003C2.66699 23.3603 8.64033 29.3337 16.0003 29.3337C23.3603 29.3337 29.3337 23.3603 29.3337 16.0003C29.3337 8.64033 23.3603 2.66699 16.0003 2.66699ZM24.4803 22.4403C22.5737 20.1203 17.947 19.3337 16.0003 19.3337C14.0537 19.3337 9.42699 20.1203 7.52033 22.4403C6.16033 20.6537 5.33366 18.427 5.33366 16.0003C5.33366 10.1203 10.1203 5.33366 16.0003 5.33366C21.8803 5.33366 26.667 10.1203 26.667 16.0003C26.667 18.427 25.8403 20.6537 24.4803 22.4403ZM11.3337 12.667C11.3337 10.0803 13.4137 8.00033 16.0003 8.00033C18.587 8.00033 20.667 10.0803 20.667 12.667C20.667 15.2537 18.587 17.3337 16.0003 17.3337C13.4137 17.3337 11.3337 15.2537 11.3337 12.667Z" fill="#4E5368"/>
</svg>
